# xmcd CD database file generated by LOLA_Freedb v0.9beta0
# 
# Track frame offsets:
#      150
#      16048
#      32148
# 
# Disc length: 639 seconds
# 
# Revision: 0 
# Processed by: cddbd v1.5.2PL0 Copyright (c) Steve Scherf et al.
# Submitted via: LOLA_Freedb v0.9beta0
# 
DISCID=16027d03
DTITLE=Marc Bender - Stolz wie der Morgen
DYEAR=2002
DGENRE=
TTITLE0=Marc Bender - Stolz wie der Morgen  (Radioversion)
TTITLE1=Marc Bender - Zaubermeer der Nacht
TTITLE2=Marc Bender - Stolz wie der Morgen (Cajunversion)
EXTD=
EXTT0=
EXTT1=
EXTT2=
PLAYORDER=
